<svg width="207" height="19" viewBox="0 0 207 19" fill="none" xmlns="http://www.w3.org/2000/svg">
<g clip-path="url(#clip0_86_230)">
<path d="M14.5098 17.6164C14.5085 15.2326 14.5033 12.85 14.5149 10.4661C14.5162 10.2194 14.5304 9.85705 14.6799 9.74547C15.2226 9.34116 15.786 8.88172 16.4137 8.69663C17.5559 8.36058 18.2275 8.89878 18.3847 10.092C18.4299 10.4373 18.4531 10.7878 18.4544 11.1369C18.4608 13.3672 18.4569 15.5975 18.4608 17.8278C18.4608 18.0798 18.4904 18.3305 18.5085 18.6062C19.7537 18.6062 20.9268 18.6062 22.0818 18.6062C22.0818 15.3244 22.1914 12.111 22.0406 8.9106C21.949 6.97174 20.8224 5.76012 19.2781 5.47395C17.7995 5.1996 16.3686 5.38206 15.0989 6.3062C14.9326 6.42697 14.7586 6.53724 14.4904 6.7197C14.4904 4.52487 14.4904 2.44162 14.4904 0.362305C13.2117 0.362305 12.0038 0.362305 10.8088 0.362305C10.8088 6.46767 10.8088 12.5166 10.8088 18.5852C12.0554 18.5852 13.262 18.5852 14.5098 18.5852C14.5098 18.2255 14.5098 17.921 14.5098 17.6164Z" fill="black"/>
<path d="M64.9746 10.7549C64.5956 8.38287 63.3297 6.63435 61.0751 5.78897C58.9198 4.98035 56.8714 5.31115 55.0796 6.78006C53.2401 8.28967 52.6703 10.3703 52.7644 12.6911C52.9101 16.2656 55.4663 18.8936 58.8553 18.9658C60.4203 18.9698 61.8202 18.4972 62.9778 17.4103C64.9114 15.5961 65.3781 13.2832 64.9746 10.7549ZM60.6459 14.9004C59.9149 16.2735 57.9156 16.2499 57.2143 14.8571C57.1318 14.6943 57.0635 14.5237 57.0016 14.3504C56.8457 13.8188 56.6884 13.0666 56.6935 12.1569C56.7 11.0476 56.9475 10.1576 57.1563 9.58399C57.4464 8.85938 58.0793 8.51151 58.8644 8.49313C59.6558 8.47607 60.33 8.76749 60.6807 9.49997C61.5392 11.2931 61.5817 13.1414 60.6459 14.9004Z" fill="black"/>
<path d="M28.5583 18.7387C30.6981 19.2717 32.6859 18.7807 34.537 17.619C34.6028 17.577 34.6453 17.4956 34.7136 17.4168C34.3656 16.7697 34.0265 16.137 33.6836 15.5069C33.6334 15.415 33.5638 15.3349 33.507 15.2561C31.3981 16.0687 30.9057 16.1606 29.8886 15.944C28.5132 15.6513 27.4935 14.4882 27.5915 13.2543C30.0704 13.2543 32.5531 13.2543 35.0874 13.2543C35.1326 12.7896 35.2035 12.3813 35.206 11.9731C35.2086 11.406 35.1957 10.8337 35.1248 10.2718C34.5654 5.82572 30.0227 3.84879 26.4635 6.50701C24.7503 7.78689 23.9911 9.5866 23.8544 11.6974C23.6237 15.222 25.4323 17.9616 28.5583 18.7387ZM30.1593 8.28309C31.3453 8.40254 32.0491 9.2663 31.9898 10.7103C30.4726 10.7103 28.9901 10.7103 27.5038 10.7103C27.6366 8.92106 29.0185 8.16888 30.1593 8.28309Z" fill="black"/>
<path d="M101.36 5.48184C98.88 5.97672 97.2919 7.5559 96.6447 9.97783C95.9216 12.6859 96.2039 15.3126 98.3463 17.3079C100.578 19.3859 103.201 19.3557 105.882 18.2623C106.345 18.0732 106.774 17.7976 107.259 17.539C106.8 16.7028 106.399 15.9703 105.998 15.2404C102.858 17.027 100.21 15.629 100.005 13.2845C100.276 13.2845 100.508 13.2845 100.74 13.2845C102.803 13.2845 104.866 13.2635 106.928 13.2976C107.47 13.3068 107.664 13.1047 107.662 12.5993C107.661 11.9653 107.705 11.3286 107.66 10.6972C107.403 7.07939 104.68 4.81892 101.36 5.48184ZM104.467 10.7444C102.977 10.7444 101.484 10.7444 99.9551 10.7444C100.27 9.04975 101.314 8.14005 102.68 8.30282C103.893 8.44722 104.543 9.32017 104.467 10.7444Z" fill="black"/>
<path d="M84.4139 15.7891C85.7816 18.3581 88.7903 19.5644 91.8609 18.702C92.7671 18.4473 93.6205 17.9984 94.5538 17.6164C94.0627 16.7119 93.663 15.9768 93.2686 15.2483C90.0433 16.7238 87.3827 15.8587 87.2976 13.2845C87.5283 13.2845 87.7565 13.2845 87.9859 13.2845C90.0459 13.2832 92.1071 13.2596 94.1671 13.2976C94.7484 13.3081 94.9302 13.0915 94.9186 12.5559C94.9044 11.9009 94.9689 11.2393 94.898 10.5921C94.6685 8.47477 93.8706 6.66981 91.8042 5.82705C89.6837 4.96198 87.665 5.29147 85.8951 6.79189C83.5051 8.81475 82.8554 12.8605 84.4139 15.7891ZM89.8487 8.29886C91.1029 8.39863 91.7668 9.23876 91.7359 10.7365C90.247 10.7365 88.7568 10.7365 87.2254 10.7365C87.4471 9.13899 88.4874 8.18991 89.8487 8.29886Z" fill="black"/>
<path d="M80.8368 18.6258C80.8368 15.285 80.8368 12.019 80.8368 8.66115C81.6231 8.66115 82.3373 8.66115 83.0463 8.66115C83.0463 7.63593 83.0463 6.70391 83.0463 5.68263C82.2909 5.68263 81.5767 5.68263 80.8755 5.68263C80.6305 3.37491 81.2428 2.8262 83.5877 3.23051C83.8081 2.33788 84.0311 1.43868 84.2644 0.494847C82.6093 -0.0801149 81.0018 -0.241577 79.4433 0.488284C77.2802 1.50169 77.0778 3.55737 77.0392 5.69707C76.4668 5.69707 75.9602 5.69707 75.4124 5.69707C75.4124 6.71179 75.4124 7.65956 75.4124 8.67296C75.9551 8.67296 76.4617 8.67296 77.0533 8.67296C77.0533 12.023 77.0533 15.31 77.0533 18.6272C78.3334 18.6258 79.5284 18.6258 80.8368 18.6258Z" fill="black"/>
<path d="M67.7192 18.6338C68.9993 18.6338 70.1762 18.6338 71.4691 18.6338C71.4691 15.2982 71.4691 12.0296 71.4691 8.67564C72.2529 8.67564 72.9709 8.67564 73.6941 8.67564C73.6941 7.64254 73.6941 6.69609 73.6941 5.66562C72.9258 5.66562 72.2103 5.66562 71.4717 5.66562C71.4601 4.81893 71.3286 4.01162 71.9242 3.41303C72.6061 2.7278 73.4466 3.1308 74.2419 3.23713C74.4701 2.31167 74.6892 1.42691 74.9045 0.55397C73.4504 -0.160138 71.3132 -0.181141 69.9364 0.557908C67.9229 1.63826 67.7179 3.60468 67.6908 5.70369C67.1133 5.70369 66.5925 5.70369 66.0859 5.70369C66.0859 6.74466 66.0859 7.69505 66.0859 8.70451C66.6454 8.70451 67.152 8.70451 67.7192 8.70451C67.7192 10.4005 67.7192 12.0348 67.7192 13.6705C67.7192 15.3231 67.7192 16.9758 67.7192 18.6338Z" fill="black"/>
<path d="M1.26702 8.67037C1.39464 8.67299 1.52097 8.69006 1.7414 8.70844C1.7414 9.0458 1.74011 9.3254 1.7414 9.60632C1.74656 11.2459 1.71046 12.8881 1.76589 14.5263C1.84195 16.7933 2.84098 18.2701 4.58768 18.7466C6.01856 19.1378 7.4301 18.9488 8.90351 18.4683C8.71402 17.556 8.52968 16.6752 8.33632 15.7471C8.05788 15.8114 7.8542 15.8666 7.64924 15.9046C6.4027 16.1409 5.64344 15.5844 5.50551 14.2992C5.45652 13.845 5.48488 13.3816 5.48359 12.9222C5.48101 11.5294 5.4823 10.1353 5.4823 8.65855C6.5329 8.65855 7.50615 8.65855 8.49359 8.65855C8.49359 7.62283 8.49359 6.67375 8.49359 5.64066C7.46877 5.64066 6.49423 5.64066 5.46425 5.64066C5.46425 4.47236 5.46425 3.38676 5.46425 2.28015C4.19967 2.28015 2.99309 2.28015 1.70531 2.28015C1.70531 3.43664 1.70531 4.53799 1.70531 5.70367C1.09815 5.70367 0.572207 5.70367 0.00114585 5.70367C0.00114585 6.29176 -0.00143231 6.8129 0.00114585 7.33404C0.0101694 8.64805 0.0101694 8.64805 1.26702 8.67037Z" fill="black"/>
<path d="M49.9415 18.7768C50.8993 18.5628 51.7462 18.1217 52.5145 17.4208C52.0195 16.5885 51.5387 15.7812 51.0656 14.987C50.6505 15.2194 50.3257 15.4347 49.9737 15.5922C48.4217 16.2866 46.9186 15.6723 46.2741 14.0708C45.7804 12.8447 45.7804 11.5898 46.2328 10.3558C46.724 9.01162 47.9589 8.27388 49.2996 8.54824C49.7649 8.64407 50.1929 8.92892 50.6737 9.1442C51.2087 8.39071 51.7604 7.6136 52.4604 6.63038C51.5786 6.2392 50.8155 5.75219 49.9879 5.55922C46.3991 4.72172 41.676 7.05701 42.0988 12.8381C42.4172 17.2291 45.7533 19.7101 49.9415 18.7768Z" fill="black"/>
<path d="M153.189 7.86571C156.184 7.86571 159.108 7.86571 162.037 7.86571C162.037 9.93846 162.037 11.897 162.037 13.9645C159.026 13.9645 156.072 13.9645 153.145 13.9645C153.145 13.9671 153.144 13.9684 153.144 13.9711H152.932V16.3247H154.761C154.777 16.3247 154.791 16.3247 154.806 16.3247C155.276 16.3247 155.744 16.3247 156.213 16.3247C158.143 16.3247 160.072 16.3247 161.858 16.3247V17.2935H164.585V17.2554C164.585 16.943 164.585 16.6358 164.585 16.326C164.585 12.6177 164.585 9.08389 164.585 5.56323C160.743 5.56323 156.973 5.56323 153.186 5.56323C153.189 6.33641 153.189 7.04527 153.189 7.86571Z" fill="black"/>
<path d="M111.425 14.1391C110.175 14.1233 109.142 15.1486 109.147 16.4009C109.153 17.6414 110.137 18.6456 111.36 18.6574C112.584 18.6692 113.584 17.6755 113.599 16.435C113.613 15.1958 112.627 14.1535 111.425 14.1391Z" fill="black"/>
<path d="M147.973 8.36578C146.72 8.35003 145.708 9.35293 145.701 10.6197C145.691 11.9206 146.633 12.9156 147.904 12.9497C149.127 12.9825 150.172 11.9521 150.188 10.6971C150.203 9.42776 149.209 8.38022 147.973 8.36578Z" fill="black"/>
<path d="M144.301 1.20764C143.96 1.52138 143.718 1.74322 143.469 1.97294C143.739 2.23286 144.021 2.52428 144.307 2.85245C144.57 3.15437 144.805 3.44842 145.014 3.73065C145.306 3.48517 145.6 3.23839 145.893 2.99291C145.686 2.70412 145.444 2.39563 145.163 2.07927C144.867 1.74454 144.574 1.45574 144.301 1.20764Z" fill="black"/>
<path d="M142.223 2.97852C141.962 3.19642 141.694 3.42089 141.418 3.65062C141.671 3.92103 141.931 4.21376 142.193 4.52881C142.452 4.83992 142.689 5.14447 142.907 5.43983C143.184 5.19566 143.46 4.95019 143.737 4.70603C143.519 4.40804 143.269 4.09168 142.983 3.76745C142.724 3.4734 142.468 3.21086 142.223 2.97852Z" fill="black"/>
<path d="M193.386 14.928C193.377 14.8388 193.324 14.7534 193.377 14.8952C190.912 14.8952 188.546 14.9412 186.183 14.8571C185.69 14.8401 184.894 14.4305 184.797 14.0525C184.577 13.1966 184.695 12.2475 184.708 11.3365C184.709 11.2735 184.97 11.2078 185.114 11.154C187.652 10.2181 190.191 9.28343 192.809 8.31859C192.244 7.50209 191.748 6.78405 191.3 6.13689C189.101 7.09384 186.988 8.01273 184.669 9.0222V4.70998C184.72 4.41463 184.794 4.12058 184.905 3.82654C184.827 3.82654 184.748 3.82654 184.669 3.82654C183.878 3.82654 183.065 3.82654 182.218 3.82654C182.218 7.34326 182.125 10.835 182.258 14.3176C182.322 16.0018 183.384 17.0126 185.048 17.1373C187.191 17.2961 189.351 17.2883 191.5 17.2213C193.604 17.1544 193.603 17.0822 193.386 14.928Z" fill="black"/>
<path d="M139.755 6.79979C139.888 5.66824 139.487 4.60102 140.136 3.50623C139.169 3.50623 138.26 3.50623 137.269 3.50623C137.269 4.63383 137.269 5.70368 137.269 6.80372C136.651 6.80372 136.057 6.80372 135.454 6.80372C134.923 6.80372 134.384 6.80372 133.815 6.80372V4.32798C133.823 4.22296 133.847 4.08906 133.914 3.94598C134.033 3.69263 134.217 3.55873 134.297 3.50623C134.136 3.50623 133.975 3.50623 133.815 3.50623H133.101H131.393V3.56924C131.393 3.65062 131.393 3.7307 131.393 3.81077C131.393 4.86093 131.393 5.79163 131.393 6.80241C131.393 6.82079 131.393 6.83917 131.393 6.85755C130.506 6.85755 129.708 6.85755 128.857 6.85755C128.857 7.67667 128.857 8.39078 128.857 9.24928C129.724 9.24928 130.542 9.24928 131.472 9.24928C131.472 9.93189 131.472 10.5685 131.472 11.2013H131.467V12.7122H133.859V12.3013C133.859 11.9338 133.859 11.5675 133.859 11.2C133.862 10.558 133.864 9.91613 133.865 9.27422C135.081 9.27422 136.157 9.27422 137.284 9.27422C137.351 10.8219 137.256 12.3328 136.326 13.5064C135.433 14.634 134.27 15.5397 133.325 16.4481C133.615 16.7881 133.94 17.2738 134.371 17.6282C134.585 17.8041 135.069 17.879 135.3 17.7516C137.657 16.4494 139.2 14.5132 139.589 11.7473C139.702 10.9387 139.763 10.1222 139.858 9.20859C140.852 9.20859 141.81 9.20859 142.786 9.20859C142.786 8.36452 142.786 7.62941 142.786 6.79585C141.746 6.79979 140.793 6.79979 139.755 6.79979Z" fill="black"/>
<path d="M195.249 9.26367V11.4834V11.6922V11.9875C195.358 11.9179 195.51 11.8366 195.703 11.7762C195.946 11.7 196.16 11.6882 196.31 11.6922C199.94 11.6922 203.454 11.6922 207.001 11.6922C207.001 10.7706 207.001 10.0263 207.001 9.26367C203.067 9.26367 199.192 9.26367 195.249 9.26367Z" fill="black"/>
<path d="M167.366 9.18359V11.4034V11.6121V11.9074C167.476 11.8379 167.628 11.7565 167.82 11.6961C168.063 11.62 168.277 11.6081 168.427 11.6121C172.057 11.6121 175.571 11.6121 179.118 11.6121C179.118 10.6906 179.118 9.94627 179.118 9.18359C175.184 9.18359 171.309 9.18359 167.366 9.18359Z" fill="black"/>
</g>
<defs>
<clipPath id="clip0_86_230">
<rect width="207" height="19" fill="white"/>
</clipPath>
</defs>
</svg>
